# xmcd
#
# Track frame offsets: 
#        150
#        13392
#        25625
#        38795
#        51532
#        65715
#        78657
#        89472
#        101092
#        112632
#        123530
#        136377
#        148820
#        159172
#        170385
#        183612
#        201930
#        216022
#        226815
#        238792
#
# Disc length: 3353 seconds
#
# Revision: 15
# Processed by: cddbd v1.5.2PL0 Copyright (c) Steve Scherf et al.
# Submitted via: ExactAudioCopy v1.3
#
DISCID=1e0d1714
DTITLE=Howlin' Wolf - The Definitive Collection
DYEAR=1997
DGENRE=Blues
TTITLE0=Moanin' at Midnight
TTITLE1=How Many More Years
TTITLE2=Evil (Is Going On)
TTITLE3=Forty-Four
TTITLE4=Smokestack Lightnin'
TTITLE5=I Asked For Water
TTITLE6=Who's Been Talking
TTITLE7=Sittin' On Top of the World
TTITLE8=Howlin' For My Darling
TTITLE9=Wang Dang Doodle
TTITLE10=Back Door Man
TTITLE11=Spoonful
TTITLE12=Shake For Me
TTITLE13=The Red Rooster
TTITLE14=I Ain't Superstitious
TTITLE15=Goin' Down Slow
TTITLE16=Three Hundred Pounds of Joy
TTITLE17=Hidden Charms
TTITLE18=Built For Comfort
TTITLE19=Killing Floor
EXTD=
EXTT0=
EXTT1=
EXTT2=
EXTT3=
EXTT4=
EXTT5=
EXTT6=
EXTT7=
EXTT8=
EXTT9=
EXTT10=
EXTT11=
EXTT12=
EXTT13=
EXTT14=
EXTT15=
EXTT16=
EXTT17=
EXTT18=
EXTT19=
PLAYORDER=
